<svg xmlns="http://www.w3.org/2000/svg" width="1030" height="211" fill="none"><path fill="url(#a)" d="M1027.1 128.927c-.8 0-1.49-.277-2.04-.866-.56-.554-.87-1.247-.87-2.043 0-.797.28-1.489.87-2.043.55-.554 1.24-.866 2.04-.866.79 0 1.48.277 2.04.866.55.554.86 1.246.86 2.043 0 .796-.28 1.489-.86 2.043-.56.554-1.25.866-2.04.866"/><path fill="url(#b)" d="M1027.1 87.89c-.8 0-1.49-.276-2.04-.865-.56-.554-.87-1.247-.87-2.043 0-.797.28-1.49.87-2.044.55-.554 1.24-.865 2.04-.865.79 0 1.48.277 2.04.865.55.555.86 1.247.86 2.044s-.28 1.489-.86 2.043c-.56.554-1.25.866-2.04.866"/><path fill="url(#c)" d="M1027.1 46.855c-.8 0-1.49-.277-2.04-.866-.56-.554-.87-1.247-.87-2.044s.28-1.489.87-2.043c.55-.554 1.24-.866 2.04-.866.79 0 1.48.277 2.04.866.55.554.86 1.247.86 2.043 0 .797-.28 1.49-.86 2.044-.56.554-1.25.866-2.04.866"/><path fill="url(#d)" d="M1027.1 5.818c-.8 0-1.49-.277-2.04-.865-.56-.555-.87-1.248-.87-2.043 0-.797.28-1.49.87-2.044.55-.555 1.24-.866 2.04-.866.79 0 1.48.277 2.04.866.55.555.86 1.247.86 2.044 0 .795-.28 1.488-.86 2.043-.56.554-1.25.865-2.04.865"/><path fill="url(#e)" d="M986.129 169.963c-.795 0-1.487-.277-2.04-.865-.553-.554-.865-1.247-.865-2.044s.277-1.489.865-2.043c.553-.554 1.245-.866 2.04-.866.796 0 1.487.277 2.039.866.554.554.865 1.247.865 2.043 0 .797-.276 1.49-.865 2.044-.552.554-1.243.865-2.039.865"/><path fill="url(#f)" d="M986.129 128.927c-.795 0-1.486-.277-2.04-.866-.553-.554-.865-1.246-.865-2.043s.277-1.489.865-2.043c.554-.554 1.245-.866 2.04-.866.796 0 1.487.277 2.04.866.553.554.864 1.246.864 2.043s-.275 1.489-.864 2.043c-.553.554-1.244.866-2.04.866"/><path fill="url(#g)" d="M986.129 87.89c-.795 0-1.486-.276-2.04-.865-.553-.554-.865-1.247-.865-2.043 0-.797.277-1.49.865-2.044.554-.554 1.245-.865 2.04-.865.796 0 1.487.277 2.04.865.553.555.864 1.247.864 2.044s-.275 1.489-.864 2.043c-.553.554-1.244.866-2.04.866"/><path fill="url(#h)" d="M986.129 46.855c-.795 0-1.486-.277-2.04-.866-.553-.554-.865-1.247-.865-2.044s.277-1.489.865-2.043c.554-.554 1.245-.866 2.04-.866.796 0 1.487.277 2.04.866.553.554.864 1.247.864 2.043 0 .797-.275 1.49-.864 2.044-.553.554-1.244.866-2.04.866"/><path fill="url(#i)" d="M945.162 211c-.796 0-1.487-.277-2.041-.866-.552-.554-.864-1.247-.864-2.043 0-.797.277-1.49.864-2.044.554-.554 1.245-.866 2.041-.866s1.487.277 2.039.866c.554.554.864 1.247.864 2.044s-.275 1.489-.864 2.043c-.552.554-1.244.866-2.039.866"/><path fill="url(#j)" d="M945.162 169.964c-.796 0-1.487-.278-2.041-.866-.552-.554-.864-1.247-.864-2.044s.277-1.489.864-2.043c.554-.554 1.245-.866 2.041-.866s1.487.277 2.039.866c.554.554.864 1.247.864 2.043 0 .797-.275 1.49-.864 2.044-.552.554-1.244.866-2.039.866"/><path fill="url(#k)" d="M945.162 128.927c-.796 0-1.487-.277-2.041-.866-.552-.554-.864-1.247-.864-2.043 0-.797.277-1.489.864-2.043.554-.555 1.245-.866 2.041-.866s1.487.277 2.039.866c.554.554.864 1.246.864 2.043 0 .796-.275 1.489-.864 2.043-.552.554-1.244.866-2.039.866"/><path fill="url(#l)" d="M945.162 87.89c-.796 0-1.487-.276-2.041-.865-.552-.554-.864-1.247-.864-2.043 0-.797.277-1.49.864-2.044.554-.554 1.245-.865 2.041-.865s1.486.277 2.039.865c.554.555.864 1.247.864 2.044s-.275 1.489-.864 2.043c-.553.554-1.244.866-2.039.866"/><path fill="url(#m)" d="M904.195 211c-.796 0-1.487-.277-2.041-.866-.552-.554-.865-1.247-.865-2.043 0-.797.277-1.49.865-2.044.554-.554 1.245-.866 2.041-.866s1.486.277 2.039.866c.553.554.864 1.247.864 2.044s-.275 1.489-.864 2.043c-.553.554-1.244.866-2.039.866"/><path fill="url(#n)" d="M904.194 169.963c-.795 0-1.486-.277-2.04-.865-.552-.554-.865-1.247-.865-2.044s.277-1.489.865-2.043c.554-.554 1.245-.866 2.04-.866.796 0 1.487.277 2.04.866.553.554.864 1.247.864 2.043 0 .797-.275 1.49-.864 2.044-.553.554-1.244.865-2.04.865"/><path fill="url(#o)" d="M904.194 128.927c-.795 0-1.486-.277-2.04-.866-.552-.554-.865-1.247-.865-2.043 0-.797.277-1.489.865-2.043.554-.555 1.245-.866 2.04-.866.796 0 1.487.277 2.04.866.553.554.864 1.246.864 2.043 0 .796-.275 1.489-.864 2.043-.553.554-1.244.866-2.04.866"/><path fill="url(#p)" d="M904.194 87.89c-.795 0-1.486-.276-2.04-.865-.552-.554-.865-1.247-.865-2.043 0-.797.277-1.49.865-2.044.554-.554 1.245-.865 2.04-.865.796 0 1.487.277 2.04.865.553.555.864 1.247.864 2.044s-.275 1.489-.864 2.043c-.553.554-1.244.866-2.04.866"/><path fill="url(#q)" d="M904.194 46.855c-.795 0-1.486-.277-2.04-.866-.552-.554-.865-1.247-.865-2.044s.277-1.489.865-2.043c.554-.554 1.245-.866 2.04-.866.796 0 1.487.277 2.04.866.553.554.864 1.247.864 2.043 0 .797-.275 1.49-.864 2.044-.553.554-1.244.866-2.04.866"/><path fill="url(#r)" d="M863.227 211c-.796 0-1.487-.277-2.041-.866-.552-.554-.864-1.247-.864-2.043 0-.797.277-1.489.864-2.044.554-.554 1.245-.865 2.041-.865s1.487.277 2.039.865c.554.555.864 1.247.864 2.044s-.275 1.489-.864 2.043c-.552.554-1.244.866-2.039.866"/><path fill="url(#s)" d="M863.227 169.964c-.796 0-1.487-.277-2.041-.866-.552-.554-.864-1.247-.864-2.043 0-.797.277-1.49.864-2.044.554-.554 1.245-.866 2.041-.866s1.487.277 2.039.866c.554.554.864 1.247.864 2.044s-.275 1.489-.864 2.043c-.552.554-1.244.866-2.039.866"/><path fill="url(#t)" d="M863.227 128.927c-.796 0-1.487-.277-2.041-.865-.552-.554-.864-1.247-.864-2.044s.277-1.489.864-2.043c.554-.554 1.245-.866 2.041-.866s1.487.277 2.039.866c.554.554.864 1.247.864 2.043 0 .797-.275 1.49-.864 2.044-.552.554-1.244.865-2.039.865"/><path fill="url(#u)" d="M863.227 87.891c-.796 0-1.487-.277-2.041-.866-.552-.554-.864-1.247-.864-2.043s.277-1.49.864-2.043c.554-.554 1.245-.866 2.041-.866s1.487.277 2.039.866c.554.554.864 1.247.864 2.043s-.275 1.49-.864 2.043c-.552.554-1.244.866-2.039.866"/><path fill="url(#v)" d="M863.227 46.855c-.796 0-1.487-.277-2.041-.866-.552-.554-.864-1.247-.864-2.043 0-.797.277-1.49.864-2.044.554-.554 1.245-.866 2.041-.866s1.487.278 2.039.866c.554.555.864 1.247.864 2.044s-.275 1.489-.864 2.043c-.552.554-1.244.866-2.039.866"/><path fill="url(#w)" d="M863.227 5.819c-.796 0-1.487-.278-2.041-.866-.552-.555-.864-1.248-.864-2.043 0-.797.277-1.49.864-2.044.554-.555 1.245-.866 2.041-.866s1.487.278 2.039.866c.554.555.864 1.247.864 2.044 0 .795-.275 1.488-.864 2.043-.552.554-1.244.866-2.039.866"/><path fill="url(#x)" d="M822.259 128.927c-.795 0-1.486-.277-2.04-.865-.552-.554-.865-1.247-.865-2.044s.277-1.489.865-2.043c.554-.554 1.245-.866 2.04-.866.796 0 1.487.277 2.04.866.553.554.864 1.247.864 2.043 0 .797-.275 1.49-.864 2.044-.553.554-1.244.865-2.04.865"/><path fill="url(#y)" d="M822.259 87.891c-.795 0-1.487-.277-2.04-.866-.553-.554-.865-1.246-.865-2.043 0-.796.277-1.489.865-2.043.553-.554 1.245-.866 2.04-.866.796 0 1.487.277 2.04.866.553.554.864 1.247.864 2.043 0 .797-.276 1.49-.864 2.043-.553.555-1.244.866-2.04.866"/><path fill="url(#z)" d="M822.259 46.855c-.795 0-1.487-.277-2.04-.866-.553-.554-.865-1.247-.865-2.043 0-.797.277-1.49.865-2.043.553-.555 1.245-.866 2.04-.866.796 0 1.487.277 2.04.866.553.554.864 1.246.864 2.043 0 .796-.276 1.49-.864 2.043-.553.554-1.244.866-2.04.866"/><path fill="url(#A)" d="M822.259 5.819c-.795 0-1.487-.278-2.04-.866-.553-.555-.865-1.247-.865-2.043 0-.797.277-1.49.865-2.044.553-.554 1.245-.866 2.04-.866.796 0 1.487.278 2.039.866.554.555.865 1.247.865 2.044s-.276 1.488-.865 2.043c-.552.555-1.243.866-2.039.866"/><path fill="url(#B)" d="M781.292 87.89c-.795 0-1.487-.276-2.041-.865-.552-.554-.864-1.247-.864-2.043 0-.797.277-1.49.864-2.044.554-.554 1.246-.865 2.041-.865s1.487.277 2.039.865c.554.555.865 1.247.865 2.044s-.276 1.49-.865 2.043c-.552.554-1.244.866-2.039.866"/><path fill="url(#C)" d="M781.292 46.855c-.795 0-1.487-.277-2.04-.866-.553-.554-.865-1.247-.865-2.043 0-.797.277-1.49.865-2.044.553-.554 1.245-.866 2.04-.866.796 0 1.487.277 2.039.866.554.554.865 1.247.865 2.044s-.276 1.489-.865 2.043c-.552.554-1.243.866-2.039.866"/><path fill="url(#D)" d="M740.325 87.891c-.795 0-1.487-.277-2.041-.866-.552-.554-.864-1.247-.864-2.043s.277-1.49.864-2.043c.554-.554 1.246-.866 2.041-.866.796 0 1.487.277 2.039.866.554.554.865 1.247.865 2.043s-.276 1.49-.865 2.043c-.552.554-1.243.866-2.039.866"/><path fill="url(#E)" d="M740.325 46.855c-.795 0-1.487-.277-2.041-.866-.552-.554-.864-1.247-.864-2.043 0-.797.277-1.49.864-2.044.554-.554 1.246-.866 2.041-.866.796 0 1.487.278 2.039.866.554.554.865 1.247.865 2.044s-.276 1.489-.865 2.043c-.552.554-1.243.866-2.039.866"/><path fill="url(#F)" d="M740.325 5.819c-.795 0-1.487-.278-2.041-.866-.552-.555-.864-1.248-.864-2.043 0-.797.277-1.49.864-2.044.554-.555 1.246-.866 2.041-.866.796 0 1.487.278 2.039.866.554.555.865 1.247.865 2.044 0 .795-.276 1.488-.865 2.043-.552.554-1.243.866-2.039.866"/><path fill="url(#G)" d="M699.358 87.891c-.796 0-1.487-.277-2.041-.866-.552-.554-.864-1.247-.864-2.043 0-.797.277-1.49.864-2.043.554-.555 1.245-.866 2.041-.866s1.487.277 2.039.866c.554.554.864 1.246.864 2.043 0 .796-.275 1.49-.864 2.043-.552.554-1.244.866-2.039.866"/><path fill="url(#H)" d="M699.358 46.855c-.796 0-1.487-.277-2.041-.866-.552-.554-.864-1.247-.864-2.043 0-.797.277-1.49.864-2.044.554-.554 1.245-.866 2.041-.866s1.487.277 2.039.866c.554.554.864 1.247.864 2.044s-.275 1.489-.864 2.043c-.552.554-1.244.866-2.039.866"/><path fill="url(#I)" d="M699.358 5.818c-.796 0-1.487-.277-2.041-.865-.552-.555-.864-1.248-.864-2.043 0-.797.277-1.49.864-2.044.554-.555 1.245-.866 2.041-.866s1.487.277 2.039.866c.554.555.864 1.247.864 2.044 0 .795-.275 1.488-.864 2.043-.552.554-1.244.865-2.039.865"/><path fill="url(#J)" d="M658.39 87.891c-.795 0-1.487-.277-2.04-.866-.553-.554-.865-1.247-.865-2.043 0-.797.277-1.49.865-2.043.553-.555 1.245-.866 2.04-.866.796 0 1.487.277 2.039.866.554.554.865 1.246.865 2.043 0 .796-.276 1.49-.865 2.043-.552.554-1.243.866-2.039.866"/><path fill="url(#K)" d="M658.39 46.855c-.795 0-1.487-.277-2.041-.866-.552-.554-.864-1.247-.864-2.043 0-.797.277-1.49.864-2.044.554-.554 1.246-.866 2.041-.866.796 0 1.487.277 2.039.866.554.554.865 1.247.865 2.044s-.276 1.489-.865 2.043c-.552.554-1.243.866-2.039.866"/><path fill="url(#L)" d="M658.39 5.818c-.795 0-1.487-.277-2.041-.865-.552-.555-.864-1.248-.864-2.043 0-.797.277-1.49.864-2.044C656.903.31 657.595 0 658.39 0c.796 0 1.487.278 2.039.866.554.555.865 1.247.865 2.044 0 .795-.276 1.488-.865 2.043-.552.554-1.243.865-2.039.865"/><path fill="url(#M)" d="M617.423 87.891c-.796 0-1.487-.277-2.041-.866-.552-.554-.864-1.247-.864-2.043 0-.797.277-1.49.864-2.043.554-.555 1.245-.866 2.041-.866s1.487.277 2.039.866c.554.554.864 1.246.864 2.043 0 .796-.275 1.49-.864 2.043-.552.554-1.244.866-2.039.866"/><path fill="url(#N)" d="M617.423 46.855c-.796 0-1.487-.277-2.041-.866-.552-.554-.864-1.247-.864-2.043 0-.797.277-1.49.864-2.044.554-.554 1.245-.866 2.041-.866s1.487.277 2.039.866c.554.554.864 1.247.864 2.044s-.275 1.489-.864 2.043c-.552.554-1.244.866-2.039.866"/><path fill="url(#O)" d="M576.456 87.891c-.796 0-1.487-.277-2.041-.866-.552-.554-.864-1.247-.864-2.043 0-.797.276-1.49.864-2.043.554-.555 1.245-.866 2.041-.866s1.487.277 2.039.866c.554.554.864 1.246.864 2.043 0 .796-.275 1.49-.864 2.043-.552.554-1.244.866-2.039.866"/><path fill="url(#P)" d="M576.455 46.855c-.795 0-1.486-.277-2.04-.866-.553-.554-.865-1.247-.865-2.043 0-.797.277-1.49.865-2.044.554-.554 1.245-.866 2.04-.866.796 0 1.487.277 2.04.866.553.554.864 1.247.864 2.044s-.276 1.489-.864 2.043c-.553.554-1.244.866-2.04.866"/><path fill="url(#Q)" d="M576.455 5.818c-.795 0-1.486-.277-2.04-.865-.553-.555-.865-1.248-.865-2.043 0-.797.277-1.49.865-2.044.554-.555 1.245-.866 2.04-.866.796 0 1.487.278 2.04.866.553.555.864 1.247.864 2.044 0 .795-.276 1.488-.864 2.043-.553.554-1.244.865-2.04.865"/><path fill="url(#R)" d="M535.488 169.964c-.795 0-1.487-.277-2.041-.866-.552-.554-.864-1.247-.864-2.044s.277-1.489.864-2.043c.554-.554 1.246-.866 2.041-.866.796 0 1.487.277 2.039.866.554.554.865 1.247.865 2.043 0 .797-.276 1.49-.865 2.044-.552.554-1.243.866-2.039.866"/><path fill="url(#S)" d="M535.488 128.927c-.795 0-1.487-.277-2.041-.865-.552-.555-.864-1.247-.864-2.044s.277-1.489.864-2.043c.554-.554 1.246-.866 2.041-.866.796 0 1.487.277 2.039.866.554.554.865 1.247.865 2.043 0 .797-.276 1.489-.865 2.044-.552.554-1.243.865-2.039.865"/><path fill="url(#T)" d="M535.488 87.891c-.795 0-1.487-.277-2.041-.866-.552-.554-.864-1.247-.864-2.043 0-.797.277-1.49.864-2.043.554-.555 1.246-.866 2.041-.866.796 0 1.487.277 2.039.866.554.554.865 1.246.865 2.043 0 .796-.276 1.49-.865 2.043-.552.554-1.243.866-2.039.866"/><path fill="url(#U)" d="M535.488 46.855c-.795 0-1.487-.277-2.041-.866-.552-.554-.864-1.247-.864-2.043 0-.797.277-1.49.864-2.044.554-.554 1.246-.866 2.041-.866.796 0 1.487.277 2.039.866.554.554.865 1.247.865 2.044s-.276 1.489-.865 2.043c-.552.554-1.243.866-2.039.866"/><path fill="url(#V)" d="M494.521 169.964c-.796 0-1.487-.277-2.041-.866-.552-.554-.864-1.247-.864-2.044s.276-1.489.864-2.043c.554-.554 1.245-.866 2.041-.866s1.486.277 2.039.866c.553.554.864 1.247.864 2.043 0 .797-.275 1.49-.864 2.044-.553.554-1.244.866-2.039.866"/><path fill="url(#W)" d="M494.521 128.928c-.796 0-1.487-.278-2.041-.866-.552-.554-.864-1.247-.864-2.044s.277-1.489.864-2.043c.554-.554 1.245-.866 2.041-.866s1.487.277 2.039.866c.554.554.864 1.247.864 2.043 0 .797-.275 1.49-.864 2.044-.552.554-1.244.866-2.039.866"/><path fill="url(#X)" d="M494.521 87.891c-.796 0-1.487-.277-2.041-.866-.552-.554-.864-1.247-.864-2.043 0-.797.276-1.49.864-2.043.554-.554 1.245-.866 2.041-.866s1.486.277 2.039.866c.553.554.864 1.246.864 2.043 0 .796-.275 1.49-.864 2.043-.553.554-1.244.866-2.039.866"/><path fill="url(#Y)" d="M494.521 46.855c-.796 0-1.487-.277-2.041-.866-.552-.554-.864-1.247-.864-2.043 0-.797.276-1.49.864-2.044.554-.554 1.245-.866 2.041-.866s1.486.277 2.039.866c.553.554.864 1.247.864 2.044s-.275 1.489-.864 2.043c-.553.554-1.244.866-2.039.866"/><path fill="url(#Z)" d="M494.521 5.818c-.796 0-1.487-.277-2.041-.865-.552-.555-.864-1.248-.864-2.043 0-.797.276-1.49.864-2.044.554-.555 1.245-.866 2.041-.866s1.486.277 2.039.866c.553.554.864 1.247.864 2.044 0 .795-.275 1.488-.864 2.043-.553.554-1.244.865-2.039.865"/><path fill="url(#aa)" d="M453.553 169.964c-.795 0-1.486-.277-2.04-.866-.552-.554-.865-1.247-.865-2.044s.277-1.489.865-2.043c.554-.554 1.245-.866 2.04-.866.796 0 1.487.277 2.04.866.553.554.864 1.247.864 2.043 0 .797-.275 1.49-.864 2.044-.553.554-1.244.866-2.04.866"/><path fill="url(#ab)" d="M453.554 128.927c-.796 0-1.487-.277-2.041-.865-.552-.555-.864-1.247-.864-2.044s.277-1.489.864-2.043c.554-.554 1.245-.866 2.041-.866s1.486.277 2.039.866c.554.554.864 1.247.864 2.043 0 .797-.275 1.489-.864 2.044-.553.554-1.244.865-2.039.865"/><path fill="url(#ac)" d="M453.554 87.891c-.796 0-1.487-.277-2.041-.866-.552-.554-.864-1.247-.864-2.043 0-.797.276-1.49.864-2.044.554-.554 1.245-.865 2.041-.865s1.486.277 2.039.865c.554.555.864 1.247.864 2.044s-.275 1.49-.864 2.043c-.553.554-1.244.866-2.039.866"/><path fill="url(#ad)" d="M453.554 46.855c-.796 0-1.487-.277-2.041-.866-.552-.554-.864-1.247-.864-2.043 0-.797.276-1.49.864-2.044.554-.554 1.245-.866 2.041-.866s1.486.278 2.039.866c.554.554.864 1.247.864 2.044s-.275 1.489-.864 2.043c-.553.554-1.244.866-2.039.866"/><path fill="url(#ae)" d="M453.554 5.818c-.796 0-1.487-.277-2.041-.865-.552-.555-.864-1.248-.864-2.043 0-.797.276-1.49.864-2.044.554-.555 1.245-.866 2.041-.866s1.486.278 2.039.866c.554.555.864 1.247.864 2.044 0 .795-.275 1.488-.864 2.043-.553.554-1.244.865-2.039.865"/><path fill="url(#af)" d="M412.586 46.855c-.796 0-1.487-.277-2.041-.866-.552-.554-.864-1.247-.864-2.044s.277-1.489.864-2.043c.554-.554 1.245-.866 2.041-.866s1.487.277 2.039.866c.554.554.864 1.247.864 2.043 0 .797-.275 1.49-.864 2.044-.552.554-1.244.866-2.039.866"/><path fill="url(#ag)" d="M412.586 5.818c-.796 0-1.487-.277-2.041-.865-.552-.555-.864-1.247-.864-2.044s.277-1.489.864-2.043C411.099.312 411.79 0 412.586 0s1.487.277 2.039.866c.554.554.864 1.247.864 2.043 0 .797-.275 1.49-.864 2.044-.552.554-1.244.865-2.039.865"/><path fill="url(#ah)" d="M371.607 5.818c-.791 0-1.48-.277-2.036-.865-.557-.555-.865-1.248-.865-2.043 0-.797.279-1.49.865-2.044.556-.555 1.245-.866 2.036-.866.806 0 1.494.277 2.051.866.542.554.864 1.247.864 2.044 0 .795-.278 1.488-.864 2.043-.557.554-1.245.865-2.051.865"/><path fill="url(#ai)" d="M330.644 211c-.795 0-1.487-.277-2.041-.866-.552-.554-.864-1.247-.864-2.043 0-.797.277-1.49.864-2.044.554-.554 1.246-.866 2.041-.866s1.487.277 2.039.866c.554.554.865 1.247.865 2.044s-.276 1.489-.865 2.043c-.552.554-1.244.866-2.039.866"/><path fill="url(#aj)" d="M330.644 169.963c-.795 0-1.487-.277-2.041-.865-.552-.554-.864-1.247-.864-2.044s.277-1.489.864-2.043c.554-.554 1.246-.866 2.041-.866s1.487.277 2.039.866c.554.554.865 1.247.865 2.043 0 .797-.276 1.49-.865 2.044-.552.554-1.244.865-2.039.865"/><path fill="url(#ak)" d="M330.644 128.927c-.795 0-1.487-.277-2.041-.866-.552-.554-.864-1.246-.864-2.043 0-.796.277-1.489.864-2.043.554-.554 1.246-.866 2.041-.866s1.487.277 2.039.866c.554.554.865 1.247.865 2.043 0 .797-.276 1.489-.865 2.043-.552.554-1.244.866-2.039.866"/><path fill="url(#al)" d="M330.644 87.89c-.795 0-1.487-.276-2.041-.865-.552-.554-.864-1.247-.864-2.043 0-.797.277-1.49.864-2.044.554-.554 1.246-.865 2.041-.865s1.487.277 2.039.865c.554.555.865 1.247.865 2.044s-.276 1.489-.865 2.043c-.552.554-1.244.866-2.039.866"/><path fill="url(#am)" d="M330.644 46.855c-.795 0-1.487-.277-2.041-.866-.552-.554-.864-1.247-.864-2.044s.277-1.489.864-2.043c.554-.554 1.246-.866 2.041-.866s1.487.277 2.039.866c.554.554.865 1.247.865 2.043 0 .797-.276 1.49-.865 2.044-.552.554-1.244.866-2.039.866"/><path fill="url(#an)" d="M330.644 5.818c-.795 0-1.487-.277-2.041-.865-.552-.555-.864-1.248-.864-2.043 0-.797.277-1.49.864-2.044.554-.555 1.246-.866 2.041-.866s1.487.277 2.039.866c.554.554.865 1.247.865 2.044 0 .795-.276 1.488-.865 2.043-.552.554-1.244.865-2.039.865"/><path fill="url(#ao)" d="M289.677 128.927c-.796 0-1.487-.277-2.041-.866-.552-.554-.864-1.246-.864-2.043 0-.796.277-1.489.864-2.043.554-.554 1.245-.866 2.041-.866s1.487.277 2.039.866c.554.554.864 1.247.864 2.043 0 .797-.275 1.489-.864 2.043-.552.555-1.244.866-2.039.866"/><path fill="url(#ap)" d="M289.677 87.89c-.796 0-1.487-.276-2.041-.865-.552-.554-.864-1.247-.864-2.043 0-.797.277-1.49.864-2.044.554-.554 1.245-.865 2.041-.865s1.487.277 2.039.865c.554.555.864 1.247.864 2.044s-.275 1.489-.864 2.043c-.552.554-1.244.866-2.039.866"/><path fill="url(#aq)" d="M289.677 46.855c-.796 0-1.487-.277-2.041-.866-.552-.554-.864-1.247-.864-2.043 0-.797.276-1.49.864-2.044.554-.554 1.245-.866 2.041-.866s1.487.277 2.039.866c.554.554.864 1.247.864 2.044s-.275 1.489-.864 2.043c-.552.554-1.244.866-2.039.866"/><path fill="url(#ar)" d="M289.677 5.818c-.796 0-1.487-.277-2.041-.865-.552-.555-.864-1.248-.864-2.043 0-.797.276-1.49.864-2.044C288.19.31 288.881 0 289.677 0s1.487.277 2.039.866c.554.554.864 1.247.864 2.044 0 .795-.275 1.488-.864 2.043-.552.554-1.244.865-2.039.865"/><path fill="url(#as)" d="M248.709 169.963c-.795 0-1.487-.277-2.04-.865-.553-.554-.865-1.247-.865-2.044s.277-1.489.865-2.043c.553-.554 1.245-.866 2.04-.866.796 0 1.487.277 2.039.866.554.554.865 1.247.865 2.043 0 .797-.276 1.49-.865 2.044-.552.554-1.243.865-2.039.865"/><path fill="url(#at)" d="M248.709 128.927c-.795 0-1.487-.277-2.04-.866-.553-.554-.865-1.246-.865-2.043 0-.796.277-1.489.865-2.043.553-.554 1.245-.866 2.04-.866.796 0 1.487.277 2.04.866.553.554.864 1.247.864 2.043 0 .797-.276 1.489-.864 2.043-.553.555-1.244.866-2.04.866"/><path fill="url(#au)" d="M248.709 87.891c-.795 0-1.487-.277-2.04-.866-.553-.554-.865-1.247-.865-2.043 0-.797.277-1.49.865-2.043.553-.555 1.245-.866 2.04-.866.796 0 1.487.277 2.04.866.553.554.864 1.246.864 2.043 0 .796-.276 1.49-.864 2.043-.553.554-1.244.866-2.04.866"/><path fill="url(#av)" d="M248.709 46.855c-.795 0-1.487-.277-2.04-.866-.553-.554-.865-1.247-.865-2.043 0-.797.277-1.49.865-2.044.553-.554 1.245-.866 2.04-.866.796 0 1.487.277 2.04.866.553.554.864 1.247.864 2.044s-.276 1.489-.864 2.043c-.553.554-1.244.866-2.04.866"/><path fill="url(#aw)" d="M248.709 5.818c-.795 0-1.487-.277-2.04-.865-.553-.555-.865-1.248-.865-2.043 0-.797.277-1.49.865-2.044.553-.555 1.245-.866 2.04-.866.796 0 1.487.277 2.04.866.553.555.864 1.247.864 2.044 0 .795-.276 1.488-.864 2.043-.553.554-1.244.865-2.04.865"/><path fill="url(#ax)" d="M207.742 169.963c-.796 0-1.487-.277-2.041-.865-.552-.554-.864-1.247-.864-2.044s.277-1.489.864-2.043c.554-.554 1.245-.866 2.041-.866s1.487.277 2.039.866c.554.554.864 1.247.864 2.043 0 .797-.275 1.49-.864 2.044-.552.554-1.244.865-2.039.865"/><path fill="url(#ay)" d="M207.742 128.927c-.796 0-1.487-.277-2.041-.866-.552-.554-.864-1.246-.864-2.043 0-.796.277-1.489.864-2.043.554-.554 1.245-.866 2.041-.866s1.487.277 2.039.866c.554.554.864 1.247.864 2.043 0 .797-.275 1.489-.864 2.043-.552.555-1.244.866-2.039.866"/><path fill="url(#az)" d="M207.742 87.89c-.796 0-1.487-.276-2.041-.865-.552-.554-.864-1.247-.864-2.043 0-.797.277-1.49.864-2.044.554-.554 1.245-.865 2.041-.865s1.487.277 2.039.865c.554.555.864 1.247.864 2.044s-.275 1.489-.864 2.043c-.552.554-1.244.866-2.039.866"/><path fill="url(#aA)" d="M166.775 87.89c-.796 0-1.487-.276-2.041-.865-.552-.554-.865-1.247-.865-2.043 0-.797.277-1.49.865-2.044.554-.554 1.245-.865 2.041-.865s1.486.277 2.039.865c.553.555.864 1.247.864 2.044s-.275 1.489-.864 2.043c-.553.554-1.244.866-2.039.866"/><path fill="url(#aB)" d="M166.774 46.855c-.795 0-1.486-.277-2.04-.866-.552-.554-.865-1.247-.865-2.044s.277-1.489.865-2.043c.554-.554 1.245-.866 2.04-.866.796 0 1.487.277 2.04.866.553.554.864 1.247.864 2.043 0 .797-.275 1.49-.864 2.044-.553.554-1.244.866-2.04.866"/><path fill="url(#aC)" d="M166.774 5.818c-.795 0-1.486-.277-2.04-.865-.552-.555-.865-1.248-.865-2.043 0-.797.277-1.49.865-2.044.554-.555 1.245-.866 2.04-.866.796 0 1.487.277 2.04.866.553.554.864 1.247.864 2.044 0 .795-.275 1.488-.864 2.043-.553.554-1.244.865-2.04.865"/><path fill="url(#aD)" d="M125.807 87.89c-.795 0-1.487-.276-2.041-.865-.552-.554-.864-1.247-.864-2.043 0-.797.277-1.49.864-2.044.554-.554 1.246-.865 2.041-.865.796 0 1.487.277 2.039.865.554.555.865 1.247.865 2.044s-.276 1.489-.865 2.043c-.552.554-1.243.866-2.039.866"/><path fill="url(#aE)" d="M125.807 46.855c-.795 0-1.487-.277-2.041-.866-.552-.554-.864-1.247-.864-2.043 0-.797.277-1.49.864-2.044.554-.554 1.246-.866 2.041-.866.796 0 1.487.277 2.039.866.554.554.865 1.247.865 2.044s-.276 1.489-.865 2.043c-.552.554-1.243.866-2.039.866"/><path fill="url(#aF)" d="M84.84 128.927c-.796 0-1.487-.277-2.04-.866-.553-.554-.865-1.246-.865-2.043 0-.796.277-1.489.864-2.043.554-.554 1.245-.866 2.04-.866.796 0 1.488.277 2.04.866.554.554.864 1.247.864 2.043 0 .797-.275 1.489-.864 2.043-.552.555-1.244.866-2.04.866"/><path fill="url(#aG)" d="M84.84 87.89c-.796 0-1.487-.276-2.04-.865-.553-.554-.865-1.247-.865-2.043 0-.797.277-1.49.864-2.044.554-.554 1.245-.865 2.04-.865.796 0 1.488.277 2.04.865.554.555.864 1.247.864 2.044s-.275 1.49-.864 2.043c-.552.554-1.244.866-2.04.866"/><path fill="url(#aH)" d="M84.84 46.855c-.796 0-1.487-.277-2.041-.866-.552-.554-.864-1.247-.864-2.043 0-.797.277-1.49.864-2.044.554-.554 1.245-.866 2.04-.866.796 0 1.488.277 2.04.866.554.554.864 1.247.864 2.044s-.275 1.489-.864 2.043c-.552.554-1.244.866-2.04.866"/><path fill="url(#aI)" d="M84.84 5.818c-.796 0-1.487-.277-2.041-.865-.552-.555-.864-1.248-.864-2.043 0-.797.277-1.49.864-2.044C83.353.31 84.044 0 84.839 0c.796 0 1.488.277 2.04.866.554.555.864 1.247.864 2.044 0 .795-.275 1.488-.864 2.043-.552.554-1.244.865-2.04.865"/><path fill="url(#aJ)" d="M43.872 211c-.795 0-1.486-.277-2.04-.866-.553-.554-.865-1.247-.865-2.043 0-.797.277-1.49.865-2.044.553-.554 1.245-.866 2.04-.866.796 0 1.487.278 2.04.866.553.554.864 1.247.864 2.044s-.276 1.489-.864 2.043c-.553.554-1.244.866-2.04.866"/><path fill="url(#aK)" d="M43.873 169.963c-.796 0-1.487-.277-2.041-.865-.553-.554-.864-1.247-.864-2.044s.276-1.489.864-2.043c.554-.554 1.245-.866 2.04-.866.796 0 1.487.277 2.04.866.553.554.864 1.247.864 2.043 0 .797-.275 1.49-.864 2.044-.553.554-1.244.865-2.04.865"/><path fill="url(#aL)" d="M43.873 128.927c-.796 0-1.487-.277-2.041-.866-.553-.554-.864-1.246-.864-2.043 0-.796.276-1.489.864-2.043.554-.554 1.245-.866 2.04-.866.796 0 1.487.277 2.04.866.553.554.864 1.247.864 2.043 0 .797-.275 1.489-.864 2.043-.553.555-1.244.866-2.04.866"/><path fill="url(#aM)" d="M43.873 87.89c-.796 0-1.487-.276-2.041-.865-.553-.554-.864-1.247-.864-2.043 0-.797.276-1.49.864-2.044.554-.554 1.245-.865 2.04-.865.796 0 1.487.277 2.04.865.553.555.864 1.247.864 2.044s-.275 1.489-.864 2.043c-.553.554-1.244.866-2.04.866"/><path fill="url(#aN)" d="M43.873 46.855c-.796 0-1.487-.277-2.041-.866-.553-.554-.864-1.247-.864-2.043 0-.797.276-1.49.864-2.044.553-.554 1.245-.866 2.04-.866.796 0 1.487.277 2.04.866.553.554.864 1.247.864 2.044s-.275 1.489-.864 2.043c-.553.554-1.244.866-2.04.866"/><path fill="url(#aO)" d="M43.873 5.818c-.796 0-1.487-.277-2.041-.865-.553-.555-.864-1.248-.864-2.043 0-.797.276-1.49.864-2.044C42.385.31 43.077 0 43.872 0c.796 0 1.487.277 2.04.866.553.555.864 1.247.864 2.044 0 .795-.275 1.488-.864 2.043-.553.554-1.244.865-2.04.865"/><path fill="url(#aP)" d="M.864 210.134c.554.589 1.246.866 2.041.866s1.487-.312 2.04-.866c.588-.554.864-1.247.864-2.043 0-.797-.311-1.49-.865-2.044-.552-.589-1.244-.866-2.039-.866s-1.487.312-2.04.866c-.588.554-.865 1.247-.865 2.044s.312 1.489.864 2.043"/><path fill="url(#aQ)" d="M.864 169.098c.554.588 1.246.865 2.041.865s1.487-.311 2.04-.865c.588-.554.864-1.247.864-2.044s-.311-1.489-.865-2.043c-.552-.589-1.244-.866-2.039-.866s-1.487.312-2.04.866c-.588.554-.865 1.247-.865 2.043 0 .797.312 1.49.864 2.044"/><path fill="url(#aR)" d="M2.905 128.927c-.795 0-1.487-.277-2.04-.866-.553-.554-.865-1.246-.865-2.043 0-.796.277-1.489.864-2.043.554-.554 1.246-.866 2.041-.866s1.487.277 2.04.866c.553.554.864 1.247.864 2.043 0 .797-.276 1.489-.865 2.043-.552.554-1.244.866-2.039.866"/><path fill="url(#aS)" d="M.864 87.025c.554.589 1.246.866 2.041.866s1.487-.312 2.04-.866c.588-.554.864-1.247.864-2.043 0-.797-.311-1.49-.865-2.044-.552-.588-1.244-.865-2.039-.865s-1.487.311-2.04.865C.276 83.493 0 84.185 0 84.982s.312 1.489.864 2.043"/><path fill="url(#aT)" d="M2.905 46.855c-.795 0-1.487-.277-2.04-.866C.311 45.435 0 44.742 0 43.945s.277-1.489.864-2.043c.554-.554 1.246-.866 2.041-.866s1.487.277 2.04.866c.553.554.864 1.247.864 2.043 0 .797-.276 1.49-.865 2.044-.552.554-1.244.866-2.039.866"/><path fill="url(#aU)" d="M.864 4.953c.554.588 1.246.865 2.041.865s1.487-.31 2.04-.865c.588-.555.864-1.248.864-2.043 0-.797-.311-1.49-.865-2.044C4.392.277 3.7 0 2.905 0S1.418.311.865.866C.276 1.42 0 2.113 0 2.91c0 .795.312 1.488.864 2.043"/><defs><linearGradient id="a" x1="681.5" x2="282.779" y1="95" y2="152.466" gradientUnits="userSpaceOnUse"><stop stop-color="#FF8BFF"/><stop offset="1" stop-color="#FF8BFF" stop-opacity="0"/></linearGradient><linearGradient id="b" x1="681.5" x2="282.779" y1="95" y2="152.466" gradientUnits="userSpaceOnUse"><stop stop-color="#FF8BFF"/><stop offset="1" stop-color="#FF8BFF" stop-opacity="0"/></linearGradient><linearGradient id="c" x1="681.5" x2="282.779" y1="95" y2="152.466" gradientUnits="userSpaceOnUse"><stop stop-color="#FF8BFF"/><stop offset="1" stop-color="#FF8BFF" stop-opacity="0"/></linearGradient><linearGradient id="d" x1="681.5" x2="282.779" y1="95" y2="152.466" gradientUnits="userSpaceOnUse"><stop stop-color="#FF8BFF"/><stop offset="1" stop-color="#FF8BFF" stop-opacity="0"/></linearGradient><linearGradient id="e" x1="681.5" x2="282.779" y1="95" y2="152.466" gradientUnits="userSpaceOnUse"><stop stop-color="#FF8BFF"/><stop offset="1" stop-color="#FF8BFF" stop-opacity="0"/></linearGradient><linearGradient id="f" x1="681.5" x2="282.779" y1="95" y2="152.466" gradientUnits="userSpaceOnUse"><stop stop-color="#FF8BFF"/><stop offset="1" stop-color="#FF8BFF" stop-opacity="0"/></linearGradient><linearGradient id="g" x1="681.5" x2="282.779" y1="95" y2="152.466" gradientUnits="userSpaceOnUse"><stop stop-color="#FF8BFF"/><stop offset="1" stop-color="#FF8BFF" stop-opacity="0"/></linearGradient><linearGradient id="h" x1="681.5" x2="282.779" y1="95" y2="152.466" gradientUnits="userSpaceOnUse"><stop stop-color="#FF8BFF"/><stop offset="1" stop-color="#FF8BFF" stop-opacity="0"/></linearGradient><linearGradient id="i" x1="681.5" x2="282.779" y1="95" y2="152.466" gradientUnits="userSpaceOnUse"><stop stop-color="#FF8BFF"/><stop offset="1" stop-color="#FF8BFF" stop-opacity="0"/></linearGradient><linearGradient id="j" x1="681.5" x2="282.779" y1="95" y2="152.466" gradientUnits="userSpaceOnUse"><stop stop-color="#FF8BFF"/><stop offset="1" stop-color="#FF8BFF" stop-opacity="0"/></linearGradient><linearGradient id="k" x1="681.5" x2="282.779" y1="95" y2="152.466" gradientUnits="userSpaceOnUse"><stop stop-color="#FF8BFF"/><stop offset="1" stop-color="#FF8BFF" stop-opacity="0"/></linearGradient><linearGradient id="l" x1="681.5" x2="282.779" y1="95" y2="152.466" gradientUnits="userSpaceOnUse"><stop stop-color="#FF8BFF"/><stop offset="1" stop-color="#FF8BFF" stop-opacity="0"/></linearGradient><linearGradient id="m" x1="681.5" x2="282.779" y1="95" y2="152.466" gradientUnits="userSpaceOnUse"><stop stop-color="#FF8BFF"/><stop offset="1" stop-color="#FF8BFF" stop-opacity="0"/></linearGradient><linearGradient id="n" x1="681.5" x2="282.779" y1="95" y2="152.466" gradientUnits="userSpaceOnUse"><stop stop-color="#FF8BFF"/><stop offset="1" stop-color="#FF8BFF" stop-opacity="0"/></linearGradient><linearGradient id="o" x1="681.5" x2="282.779" y1="95" y2="152.466" gradientUnits="userSpaceOnUse"><stop stop-color="#FF8BFF"/><stop offset="1" stop-color="#FF8BFF" stop-opacity="0"/></linearGradient><linearGradient id="p" x1="681.5" x2="282.779" y1="95" y2="152.466" gradientUnits="userSpaceOnUse"><stop stop-color="#FF8BFF"/><stop offset="1" stop-color="#FF8BFF" stop-opacity="0"/></linearGradient><linearGradient id="q" x1="681.5" x2="282.779" y1="95" y2="152.466" gradientUnits="userSpaceOnUse"><stop stop-color="#FF8BFF"/><stop offset="1" stop-color="#FF8BFF" stop-opacity="0"/></linearGradient><linearGradient id="r" x1="681.5" x2="282.779" y1="95" y2="152.466" gradientUnits="userSpaceOnUse"><stop stop-color="#FF8BFF"/><stop offset="1" stop-color="#FF8BFF" stop-opacity="0"/></linearGradient><linearGradient id="s" x1="681.5" x2="282.779" y1="95" y2="152.466" gradientUnits="userSpaceOnUse"><stop stop-color="#FF8BFF"/><stop offset="1" stop-color="#FF8BFF" stop-opacity="0"/></linearGradient><linearGradient id="t" x1="681.5" x2="282.779" y1="95" y2="152.466" gradientUnits="userSpaceOnUse"><stop stop-color="#FF8BFF"/><stop offset="1" stop-color="#FF8BFF" stop-opacity="0"/></linearGradient><linearGradient id="u" x1="681.5" x2="282.779" y1="95" y2="152.466" gradientUnits="userSpaceOnUse"><stop stop-color="#FF8BFF"/><stop offset="1" stop-color="#FF8BFF" stop-opacity="0"/></linearGradient><linearGradient id="v" x1="681.5" x2="282.779" y1="95" y2="152.466" gradientUnits="userSpaceOnUse"><stop stop-color="#FF8BFF"/><stop offset="1" stop-color="#FF8BFF" stop-opacity="0"/></linearGradient><linearGradient id="w" x1="681.5" x2="282.779" y1="95" y2="152.466" gradientUnits="userSpaceOnUse"><stop stop-color="#FF8BFF"/><stop offset="1" stop-color="#FF8BFF" stop-opacity="0"/></linearGradient><linearGradient id="x" x1="681.5" x2="282.779" y1="95" y2="152.466" gradientUnits="userSpaceOnUse"><stop stop-color="#FF8BFF"/><stop offset="1" stop-color="#FF8BFF" stop-opacity="0"/></linearGradient><linearGradient id="y" x1="681.5" x2="282.779" y1="95" y2="152.466" gradientUnits="userSpaceOnUse"><stop stop-color="#FF8BFF"/><stop offset="1" stop-color="#FF8BFF" stop-opacity="0"/></linearGradient><linearGradient id="z" x1="681.5" x2="282.779" y1="95" y2="152.466" gradientUnits="userSpaceOnUse"><stop stop-color="#FF8BFF"/><stop offset="1" stop-color="#FF8BFF" stop-opacity="0"/></linearGradient><linearGradient id="A" x1="681.5" x2="282.779" y1="95" y2="152.466" gradientUnits="userSpaceOnUse"><stop stop-color="#FF8BFF"/><stop offset="1" stop-color="#FF8BFF" stop-opacity="0"/></linearGradient><linearGradient id="B" x1="681.5" x2="282.779" y1="95" y2="152.466" gradientUnits="userSpaceOnUse"><stop stop-color="#FF8BFF"/><stop offset="1" stop-color="#FF8BFF" stop-opacity="0"/></linearGradient><linearGradient id="C" x1="681.5" x2="282.779" y1="95" y2="152.466" gradientUnits="userSpaceOnUse"><stop stop-color="#FF8BFF"/><stop offset="1" stop-color="#FF8BFF" stop-opacity="0"/></linearGradient><linearGradient id="D" x1="681.5" x2="282.779" y1="95" y2="152.466" gradientUnits="userSpaceOnUse"><stop stop-color="#FF8BFF"/><stop offset="1" stop-color="#FF8BFF" stop-opacity="0"/></linearGradient><linearGradient id="E" x1="681.5" x2="282.779" y1="95" y2="152.466" gradientUnits="userSpaceOnUse"><stop stop-color="#FF8BFF"/><stop offset="1" stop-color="#FF8BFF" stop-opacity="0"/></linearGradient><linearGradient id="F" x1="681.5" x2="282.779" y1="95" y2="152.466" gradientUnits="userSpaceOnUse"><stop stop-color="#FF8BFF"/><stop offset="1" stop-color="#FF8BFF" stop-opacity="0"/></linearGradient><linearGradient id="G" x1="681.5" x2="282.779" y1="95" y2="152.466" gradientUnits="userSpaceOnUse"><stop stop-color="#FF8BFF"/><stop offset="1" stop-color="#FF8BFF" stop-opacity="0"/></linearGradient><linearGradient id="H" x1="681.5" x2="282.779" y1="95" y2="152.466" gradientUnits="userSpaceOnUse"><stop stop-color="#FF8BFF"/><stop offset="1" stop-color="#FF8BFF" stop-opacity="0"/></linearGradient><linearGradient id="I" x1="681.5" x2="282.779" y1="95" y2="152.466" gradientUnits="userSpaceOnUse"><stop stop-color="#FF8BFF"/><stop offset="1" stop-color="#FF8BFF" stop-opacity="0"/></linearGradient><linearGradient id="J" x1="681.5" x2="282.779" y1="95" y2="152.466" gradientUnits="userSpaceOnUse"><stop stop-color="#FF8BFF"/><stop offset="1" stop-color="#FF8BFF" stop-opacity="0"/></linearGradient><linearGradient id="K" x1="681.5" x2="282.779" y1="95" y2="152.466" gradientUnits="userSpaceOnUse"><stop stop-color="#FF8BFF"/><stop offset="1" stop-color="#FF8BFF" stop-opacity="0"/></linearGradient><linearGradient id="L" x1="681.5" x2="282.779" y1="95" y2="152.466" gradientUnits="userSpaceOnUse"><stop stop-color="#FF8BFF"/><stop offset="1" stop-color="#FF8BFF" stop-opacity="0"/></linearGradient><linearGradient id="M" x1="681.5" x2="282.779" y1="95" y2="152.466" gradientUnits="userSpaceOnUse"><stop stop-color="#FF8BFF"/><stop offset="1" stop-color="#FF8BFF" stop-opacity="0"/></linearGradient><linearGradient id="N" x1="681.5" x2="282.779" y1="95" y2="152.466" gradientUnits="userSpaceOnUse"><stop stop-color="#FF8BFF"/><stop offset="1" stop-color="#FF8BFF" stop-opacity="0"/></linearGradient><linearGradient id="O" x1="681.5" x2="282.779" y1="95" y2="152.466" gradientUnits="userSpaceOnUse"><stop stop-color="#FF8BFF"/><stop offset="1" stop-color="#FF8BFF" stop-opacity="0"/></linearGradient><linearGradient id="P" x1="681.5" x2="282.779" y1="95" y2="152.466" gradientUnits="userSpaceOnUse"><stop stop-color="#FF8BFF"/><stop offset="1" stop-color="#FF8BFF" stop-opacity="0"/></linearGradient><linearGradient id="Q" x1="681.5" x2="282.779" y1="95" y2="152.466" gradientUnits="userSpaceOnUse"><stop stop-color="#FF8BFF"/><stop offset="1" stop-color="#FF8BFF" stop-opacity="0"/></linearGradient><linearGradient id="R" x1="681.5" x2="282.779" y1="95" y2="152.466" gradientUnits="userSpaceOnUse"><stop stop-color="#FF8BFF"/><stop offset="1" stop-color="#FF8BFF" stop-opacity="0"/></linearGradient><linearGradient id="S" x1="681.5" x2="282.779" y1="95" y2="152.466" gradientUnits="userSpaceOnUse"><stop stop-color="#FF8BFF"/><stop offset="1" stop-color="#FF8BFF" stop-opacity="0"/></linearGradient><linearGradient id="T" x1="681.5" x2="282.779" y1="95" y2="152.466" gradientUnits="userSpaceOnUse"><stop stop-color="#FF8BFF"/><stop offset="1" stop-color="#FF8BFF" stop-opacity="0"/></linearGradient><linearGradient id="U" x1="681.5" x2="282.779" y1="95" y2="152.466" gradientUnits="userSpaceOnUse"><stop stop-color="#FF8BFF"/><stop offset="1" stop-color="#FF8BFF" stop-opacity="0"/></linearGradient><linearGradient id="V" x1="681.5" x2="282.779" y1="95" y2="152.466" gradientUnits="userSpaceOnUse"><stop stop-color="#FF8BFF"/><stop offset="1" stop-color="#FF8BFF" stop-opacity="0"/></linearGradient><linearGradient id="W" x1="681.5" x2="282.779" y1="95" y2="152.466" gradientUnits="userSpaceOnUse"><stop stop-color="#FF8BFF"/><stop offset="1" stop-color="#FF8BFF" stop-opacity="0"/></linearGradient><linearGradient id="X" x1="681.5" x2="282.779" y1="95" y2="152.466" gradientUnits="userSpaceOnUse"><stop stop-color="#FF8BFF"/><stop offset="1" stop-color="#FF8BFF" stop-opacity="0"/></linearGradient><linearGradient id="Y" x1="681.5" x2="282.779" y1="95" y2="152.466" gradientUnits="userSpaceOnUse"><stop stop-color="#FF8BFF"/><stop offset="1" stop-color="#FF8BFF" stop-opacity="0"/></linearGradient><linearGradient id="Z" x1="681.5" x2="282.779" y1="95" y2="152.466" gradientUnits="userSpaceOnUse"><stop stop-color="#FF8BFF"/><stop offset="1" stop-color="#FF8BFF" stop-opacity="0"/></linearGradient><linearGradient id="aa" x1="681.5" x2="282.779" y1="95" y2="152.466" gradientUnits="userSpaceOnUse"><stop stop-color="#FF8BFF"/><stop offset="1" stop-color="#FF8BFF" stop-opacity="0"/></linearGradient><linearGradient id="ab" x1="681.5" x2="282.779" y1="95" y2="152.466" gradientUnits="userSpaceOnUse"><stop stop-color="#FF8BFF"/><stop offset="1" stop-color="#FF8BFF" stop-opacity="0"/></linearGradient><linearGradient id="ac" x1="681.5" x2="282.779" y1="95" y2="152.466" gradientUnits="userSpaceOnUse"><stop stop-color="#FF8BFF"/><stop offset="1" stop-color="#FF8BFF" stop-opacity="0"/></linearGradient><linearGradient id="ad" x1="681.5" x2="282.779" y1="95" y2="152.466" gradientUnits="userSpaceOnUse"><stop stop-color="#FF8BFF"/><stop offset="1" stop-color="#FF8BFF" stop-opacity="0"/></linearGradient><linearGradient id="ae" x1="681.5" x2="282.779" y1="95" y2="152.466" gradientUnits="userSpaceOnUse"><stop stop-color="#FF8BFF"/><stop offset="1" stop-color="#FF8BFF" stop-opacity="0"/></linearGradient><linearGradient id="af" x1="681.5" x2="282.779" y1="95" y2="152.466" gradientUnits="userSpaceOnUse"><stop stop-color="#FF8BFF"/><stop offset="1" stop-color="#FF8BFF" stop-opacity="0"/></linearGradient><linearGradient id="ag" x1="681.5" x2="282.779" y1="95" y2="152.466" gradientUnits="userSpaceOnUse"><stop stop-color="#FF8BFF"/><stop offset="1" stop-color="#FF8BFF" stop-opacity="0"/></linearGradient><linearGradient id="ah" x1="681.5" x2="282.779" y1="95" y2="152.466" gradientUnits="userSpaceOnUse"><stop stop-color="#FF8BFF"/><stop offset="1" stop-color="#FF8BFF" stop-opacity="0"/></linearGradient><linearGradient id="ai" x1="681.5" x2="282.779" y1="95" y2="152.466" gradientUnits="userSpaceOnUse"><stop stop-color="#FF8BFF"/><stop offset="1" stop-color="#FF8BFF" stop-opacity="0"/></linearGradient><linearGradient id="aj" x1="681.5" x2="282.779" y1="95" y2="152.466" gradientUnits="userSpaceOnUse"><stop stop-color="#FF8BFF"/><stop offset="1" stop-color="#FF8BFF" stop-opacity="0"/></linearGradient><linearGradient id="ak" x1="681.5" x2="282.779" y1="95" y2="152.466" gradientUnits="userSpaceOnUse"><stop stop-color="#FF8BFF"/><stop offset="1" stop-color="#FF8BFF" stop-opacity="0"/></linearGradient><linearGradient id="al" x1="681.5" x2="282.779" y1="95" y2="152.466" gradientUnits="userSpaceOnUse"><stop stop-color="#FF8BFF"/><stop offset="1" stop-color="#FF8BFF" stop-opacity="0"/></linearGradient><linearGradient id="am" x1="681.5" x2="282.779" y1="95" y2="152.466" gradientUnits="userSpaceOnUse"><stop stop-color="#FF8BFF"/><stop offset="1" stop-color="#FF8BFF" stop-opacity="0"/></linearGradient><linearGradient id="an" x1="681.5" x2="282.779" y1="95" y2="152.466" gradientUnits="userSpaceOnUse"><stop stop-color="#FF8BFF"/><stop offset="1" stop-color="#FF8BFF" stop-opacity="0"/></linearGradient><linearGradient id="ao" x1="681.5" x2="282.779" y1="95" y2="152.466" gradientUnits="userSpaceOnUse"><stop stop-color="#FF8BFF"/><stop offset="1" stop-color="#FF8BFF" stop-opacity="0"/></linearGradient><linearGradient id="ap" x1="681.5" x2="282.779" y1="95" y2="152.466" gradientUnits="userSpaceOnUse"><stop stop-color="#FF8BFF"/><stop offset="1" stop-color="#FF8BFF" stop-opacity="0"/></linearGradient><linearGradient id="aq" x1="681.5" x2="282.779" y1="95" y2="152.466" gradientUnits="userSpaceOnUse"><stop stop-color="#FF8BFF"/><stop offset="1" stop-color="#FF8BFF" stop-opacity="0"/></linearGradient><linearGradient id="ar" x1="681.5" x2="282.779" y1="95" y2="152.466" gradientUnits="userSpaceOnUse"><stop stop-color="#FF8BFF"/><stop offset="1" stop-color="#FF8BFF" stop-opacity="0"/></linearGradient><linearGradient id="as" x1="681.5" x2="282.779" y1="95" y2="152.466" gradientUnits="userSpaceOnUse"><stop stop-color="#FF8BFF"/><stop offset="1" stop-color="#FF8BFF" stop-opacity="0"/></linearGradient><linearGradient id="at" x1="681.5" x2="282.779" y1="95" y2="152.466" gradientUnits="userSpaceOnUse"><stop stop-color="#FF8BFF"/><stop offset="1" stop-color="#FF8BFF" stop-opacity="0"/></linearGradient><linearGradient id="au" x1="681.5" x2="282.779" y1="95" y2="152.466" gradientUnits="userSpaceOnUse"><stop stop-color="#FF8BFF"/><stop offset="1" stop-color="#FF8BFF" stop-opacity="0"/></linearGradient><linearGradient id="av" x1="681.5" x2="282.779" y1="95" y2="152.466" gradientUnits="userSpaceOnUse"><stop stop-color="#FF8BFF"/><stop offset="1" stop-color="#FF8BFF" stop-opacity="0"/></linearGradient><linearGradient id="aw" x1="681.5" x2="282.779" y1="95" y2="152.466" gradientUnits="userSpaceOnUse"><stop stop-color="#FF8BFF"/><stop offset="1" stop-color="#FF8BFF" stop-opacity="0"/></linearGradient><linearGradient id="ax" x1="681.5" x2="282.779" y1="95" y2="152.466" gradientUnits="userSpaceOnUse"><stop stop-color="#FF8BFF"/><stop offset="1" stop-color="#FF8BFF" stop-opacity="0"/></linearGradient><linearGradient id="ay" x1="681.5" x2="282.779" y1="95" y2="152.466" gradientUnits="userSpaceOnUse"><stop stop-color="#FF8BFF"/><stop offset="1" stop-color="#FF8BFF" stop-opacity="0"/></linearGradient><linearGradient id="az" x1="681.5" x2="282.779" y1="95" y2="152.466" gradientUnits="userSpaceOnUse"><stop stop-color="#FF8BFF"/><stop offset="1" stop-color="#FF8BFF" stop-opacity="0"/></linearGradient><linearGradient id="aA" x1="681.5" x2="282.779" y1="95" y2="152.466" gradientUnits="userSpaceOnUse"><stop stop-color="#FF8BFF"/><stop offset="1" stop-color="#FF8BFF" stop-opacity="0"/></linearGradient><linearGradient id="aB" x1="681.5" x2="282.779" y1="95" y2="152.466" gradientUnits="userSpaceOnUse"><stop stop-color="#FF8BFF"/><stop offset="1" stop-color="#FF8BFF" stop-opacity="0"/></linearGradient><linearGradient id="aC" x1="681.5" x2="282.779" y1="95" y2="152.466" gradientUnits="userSpaceOnUse"><stop stop-color="#FF8BFF"/><stop offset="1" stop-color="#FF8BFF" stop-opacity="0"/></linearGradient><linearGradient id="aD" x1="681.5" x2="282.779" y1="95" y2="152.466" gradientUnits="userSpaceOnUse"><stop stop-color="#FF8BFF"/><stop offset="1" stop-color="#FF8BFF" stop-opacity="0"/></linearGradient><linearGradient id="aE" x1="681.5" x2="282.779" y1="95" y2="152.466" gradientUnits="userSpaceOnUse"><stop stop-color="#FF8BFF"/><stop offset="1" stop-color="#FF8BFF" stop-opacity="0"/></linearGradient><linearGradient id="aF" x1="681.5" x2="282.779" y1="95" y2="152.466" gradientUnits="userSpaceOnUse"><stop stop-color="#FF8BFF"/><stop offset="1" stop-color="#FF8BFF" stop-opacity="0"/></linearGradient><linearGradient id="aG" x1="681.5" x2="282.779" y1="95" y2="152.466" gradientUnits="userSpaceOnUse"><stop stop-color="#FF8BFF"/><stop offset="1" stop-color="#FF8BFF" stop-opacity="0"/></linearGradient><linearGradient id="aH" x1="681.5" x2="282.779" y1="95" y2="152.466" gradientUnits="userSpaceOnUse"><stop stop-color="#FF8BFF"/><stop offset="1" stop-color="#FF8BFF" stop-opacity="0"/></linearGradient><linearGradient id="aI" x1="681.5" x2="282.779" y1="95" y2="152.466" gradientUnits="userSpaceOnUse"><stop stop-color="#FF8BFF"/><stop offset="1" stop-color="#FF8BFF" stop-opacity="0"/></linearGradient><linearGradient id="aJ" x1="681.5" x2="282.779" y1="95" y2="152.466" gradientUnits="userSpaceOnUse"><stop stop-color="#FF8BFF"/><stop offset="1" stop-color="#FF8BFF" stop-opacity="0"/></linearGradient><linearGradient id="aK" x1="681.5" x2="282.779" y1="95" y2="152.466" gradientUnits="userSpaceOnUse"><stop stop-color="#FF8BFF"/><stop offset="1" stop-color="#FF8BFF" stop-opacity="0"/></linearGradient><linearGradient id="aL" x1="681.5" x2="282.779" y1="95" y2="152.466" gradientUnits="userSpaceOnUse"><stop stop-color="#FF8BFF"/><stop offset="1" stop-color="#FF8BFF" stop-opacity="0"/></linearGradient><linearGradient id="aM" x1="681.5" x2="282.779" y1="95" y2="152.466" gradientUnits="userSpaceOnUse"><stop stop-color="#FF8BFF"/><stop offset="1" stop-color="#FF8BFF" stop-opacity="0"/></linearGradient><linearGradient id="aN" x1="681.5" x2="282.779" y1="95" y2="152.466" gradientUnits="userSpaceOnUse"><stop stop-color="#FF8BFF"/><stop offset="1" stop-color="#FF8BFF" stop-opacity="0"/></linearGradient><linearGradient id="aO" x1="681.5" x2="282.779" y1="95" y2="152.466" gradientUnits="userSpaceOnUse"><stop stop-color="#FF8BFF"/><stop offset="1" stop-color="#FF8BFF" stop-opacity="0"/></linearGradient><linearGradient id="aP" x1="681.5" x2="282.779" y1="95" y2="152.466" gradientUnits="userSpaceOnUse"><stop stop-color="#FF8BFF"/><stop offset="1" stop-color="#FF8BFF" stop-opacity="0"/></linearGradient><linearGradient id="aQ" x1="681.5" x2="282.779" y1="95" y2="152.466" gradientUnits="userSpaceOnUse"><stop stop-color="#FF8BFF"/><stop offset="1" stop-color="#FF8BFF" stop-opacity="0"/></linearGradient><linearGradient id="aR" x1="681.5" x2="282.779" y1="95" y2="152.466" gradientUnits="userSpaceOnUse"><stop stop-color="#FF8BFF"/><stop offset="1" stop-color="#FF8BFF" stop-opacity="0"/></linearGradient><linearGradient id="aS" x1="681.5" x2="282.779" y1="95" y2="152.466" gradientUnits="userSpaceOnUse"><stop stop-color="#FF8BFF"/><stop offset="1" stop-color="#FF8BFF" stop-opacity="0"/></linearGradient><linearGradient id="aT" x1="681.5" x2="282.779" y1="95" y2="152.466" gradientUnits="userSpaceOnUse"><stop stop-color="#FF8BFF"/><stop offset="1" stop-color="#FF8BFF" stop-opacity="0"/></linearGradient><linearGradient id="aU" x1="681.5" x2="282.779" y1="95" y2="152.466" gradientUnits="userSpaceOnUse"><stop stop-color="#FF8BFF"/><stop offset="1" stop-color="#FF8BFF" stop-opacity="0"/></linearGradient></defs></svg>